HIERARCHY
ROOT root
{
	OFFSET 0.000000 0.000000 0.000000
	CHANNELS 6 Xposition Yposition Zposition Zrotation Yrotation Xrotation
	JOINT lhip
	{
		OFFSET 0.058581 -0.082280 -0.017664
		CHANNELS 3 Zrotation Yrotation Xrotation
		JOINT lknee
		{
			OFFSET 0.043451 -0.386469 0.008037
			CHANNELS 3 Zrotation Yrotation Xrotation
			JOINT lankle
			{
				OFFSET -0.014790 -0.426874 -0.037428
				CHANNELS 3 Zrotation Yrotation Xrotation
				JOINT ltoe
				{
					OFFSET 0.041054 -0.060286 0.122042
					CHANNELS 3 Zrotation Yrotation Xrotation
					End Site
					{
						OFFSET 0.000000 0.000000 0.000000
					}
				}
			}
		}
	}
	JOINT rhip
	{
		OFFSET -0.060310 -0.090513 -0.013543
		CHANNELS 3 Zrotation Yrotation Xrotation
		JOINT rknee
		{
			OFFSET -0.043257 -0.383688 -0.004843
			CHANNELS 3 Zrotation Yrotation Xrotation
			JOINT rankle
			{
				OFFSET 0.019056 -0.420046 -0.034562
				CHANNELS 3 Zrotation Yrotation Xrotation
				JOINT rtoe
				{
					OFFSET -0.034840 -0.062106 0.130323
					CHANNELS 3 Zrotation Yrotation Xrotation
					End Site
					{
						OFFSET 0.000000 0.000000 0.000000
					}
				}
			}
		}
	}
	JOINT lowerback
	{
		OFFSET 0.004439 0.124404 -0.038385
		CHANNELS 3 Zrotation Yrotation Xrotation
		JOINT upperback
		{
			OFFSET 0.004488 0.137956 0.026820
			CHANNELS 3 Zrotation Yrotation Xrotation
			JOINT chest
			{
				OFFSET -0.002265 0.056032 0.002855
				CHANNELS 3 Zrotation Yrotation Xrotation
				JOINT lowerneck
				{
					OFFSET -0.013390 0.211636 -0.033468
					CHANNELS 3 Zrotation Yrotation Xrotation
					JOINT upperneck
					{
						OFFSET 0.010113 0.088937 0.050410
						CHANNELS 3 Zrotation Yrotation Xrotation
						End Site
						{
							OFFSET 0.000000 0.000000 0.000000
						}
					}
				}
				JOINT lclavicle
				{
					OFFSET 0.071702 0.114000 -0.018898
					CHANNELS 3 Zrotation Yrotation Xrotation
					JOINT lshoulder
					{
						OFFSET 0.122921 0.045205 -0.019046
						CHANNELS 3 Zrotation Yrotation Xrotation
						JOINT lelbow
						{
							OFFSET 0.255332 -0.015649 -0.022946
							CHANNELS 3 Zrotation Yrotation Xrotation
							JOINT lwrist
							{
								OFFSET 0.265709 0.012698 -0.007375
								CHANNELS 3 Zrotation Yrotation Xrotation
								End Site
								{
									OFFSET 0.000000 0.000000 0.000000
								}
							}
						}
					}
				}
				JOINT rclavicle
				{
					OFFSET -0.082954 0.112472 -0.023707
					CHANNELS 3 Zrotation Yrotation Xrotation
					JOINT rshoulder
					{
						OFFSET -0.113228 0.046853 -0.008472
						CHANNELS 3 Zrotation Yrotation Xrotation
						JOINT relbow
						{
							OFFSET -0.260127 -0.014369 -0.031269
							CHANNELS 3 Zrotation Yrotation Xrotation
							JOINT rwrist
							{
								OFFSET -0.269108 0.006794 -0.006027
								CHANNELS 3 Zrotation Yrotation Xrotation
								End Site
								{
									OFFSET 0.000000 0.000000 0.000000
								}
							}
						}
					}
				}
			}
		}
	}
}
MOTION
Frames: 7
Frame Time: 0.033333
0.985567 1.029774 0.911881 -89.133667 -15.307805 66.710336 25.238333 2.428222 -23.468443 -5.652745 -2.749939 19.644854 -12.497779 3.908992 12.326430 0.000000 -0.000000 0.000000 -22.307727 -1.087169 21.494089 -0.384711 15.003843 42.712163 1.703848 -8.886020 -41.680587 0.000000 -0.000000 0.000000 2.196255 6.510515 8.949200 0.397098 -1.967237 14.320510 -2.408816 1.694820 2.923862 0.643618 14.948967 12.347329 0.595889 11.530767 16.664143 -25.963425 8.138652 2.522641 -58.009233 5.836245 -1.325168 8.537039 -27.329933 6.375461 0.308067 -3.390163 -13.154525 22.994873 -2.522431 4.939333 49.813308 -1.556450 2.148432 -12.214618 36.847329 -3.606191 5.703735 1.663641 -1.674062 
0.968725 1.011140 0.904861 -89.977122 -15.181939 66.959325 25.469867 2.854728 -22.794689 -5.615974 -3.593299 18.450411 -14.171706 3.703725 14.544646 0.000000 -0.000000 0.000000 -23.525181 -0.594201 21.950741 -0.527882 16.157741 43.210052 2.039171 -8.335460 -41.663626 0.000000 -0.000000 0.000000 2.771618 6.339212 9.118101 0.286606 -1.700479 14.521626 -2.593068 1.800102 2.780317 0.520647 14.919653 12.863951 0.510059 11.941798 16.505106 -26.123941 8.736979 2.194724 -57.099188 6.836600 -2.007421 7.986739 -26.919382 6.521052 0.757811 -3.649301 -12.753736 22.710021 -2.237893 4.607703 49.281581 -0.759385 2.186897 -11.673814 37.461132 -3.620680 4.702564 1.956746 -1.220065 
0.952139 0.991130 0.897082 -90.886870 -14.829709 67.674254 25.798029 3.330861 -22.756097 -5.901572 -4.509307 18.011904 -14.218786 3.629400 15.300592 0.000000 -0.000000 0.000000 -25.030518 -0.303513 22.029424 -0.610411 16.900391 43.258956 2.375328 -7.419328 -41.545890 0.000000 -0.000000 0.000000 3.398616 6.331009 9.183797 0.164049 -1.426412 14.485444 -2.740020 2.118958 2.840740 0.497596 14.554542 13.115732 0.540153 11.869226 16.311776 -26.134654 8.851972 2.425260 -56.473252 7.439000 -2.667695 7.839883 -26.789438 6.159176 1.255195 -3.139636 -13.145144 22.820796 -1.683952 4.884535 48.531115 0.072827 1.909998 -11.720760 39.285299 -3.578693 4.228028 2.407196 -1.374205 
0.934148 0.969890 0.888656 -91.354319 -14.095478 68.801698 26.170189 3.731945 -23.712627 -6.184714 -4.388638 18.631371 -15.126125 2.985694 16.691217 0.000000 -0.000000 0.000000 -26.224327 -0.435200 21.961378 -0.803850 17.429452 43.146403 2.712611 -6.386847 -40.943715 0.000000 -0.000000 0.000000 3.638167 6.469814 9.127085 0.302396 -1.403227 14.660751 -2.773575 2.267658 2.402331 0.636270 14.346999 13.238878 0.580533 11.679014 16.048322 -25.925562 9.269679 2.206019 -55.451298 8.221853 -3.235758 7.349809 -26.978943 5.784283 -0.541172 -3.278845 -13.678870 22.978859 -1.499319 4.793606 47.815693 0.838558 2.027817 -11.515252 41.128294 -3.497018 5.915592 2.654994 -1.266615 
0.916836 0.947828 0.879839 -91.745895 -13.214194 70.041734 26.453599 3.804364 -25.269112 -7.060837 -5.054358 20.685242 -16.443843 2.432805 19.411074 0.000000 -0.000000 0.000000 -26.958551 -0.152565 21.665772 -0.938816 17.593489 43.326703 3.006179 -5.965897 -40.144893 0.000000 -0.000000 0.000000 3.538192 6.720213 9.840015 0.479518 -1.392045 14.362544 -2.728679 2.388674 1.954599 0.829961 13.534884 13.224591 0.628451 10.754831 15.608497 -25.619160 9.303224 2.275900 -54.182862 8.584840 -3.505990 6.662110 -27.245355 5.632424 -0.157348 -3.493802 -13.976942 23.068400 -0.821617 4.685286 47.843825 1.775544 2.256890 -11.991670 42.317382 -4.213066 4.853208 3.037487 -0.992505 
0.899500 0.923467 0.870602 -92.255583 -12.188144 71.799961 26.546120 3.219547 -27.829040 -8.545573 -6.217526 25.725523 -17.423669 1.750395 21.024313 0.000000 -0.000000 0.000000 -27.915494 0.085221 20.954641 -1.033233 17.589122 42.950205 3.339417 -4.815827 -39.026133 0.000000 -0.000000 0.000000 3.502222 7.279435 10.443177 0.554036 -1.595313 13.993182 -2.882997 2.464922 1.806406 1.276412 14.045108 12.459336 1.008497 10.219133 15.312745 -25.234578 8.389423 2.310615 -52.522337 8.586597 -3.447280 6.199309 -27.136689 5.272863 -1.090325 -3.704101 -13.860522 23.360776 0.118489 4.505622 48.098797 2.956565 2.586377 -13.246671 43.293379 -5.187060 5.703542 3.256510 -1.777434 
0.880192 0.898657 0.862448 -92.996971 -10.710449 73.290424 27.240243 3.340876 -30.142020 -8.530549 -2.428663 33.145057 -17.561545 2.715621 8.336211 0.000000 -0.000000 0.000000 -28.721625 -0.281205 20.973339 -1.400633 18.464334 41.582047 5.624424 -3.114596 -37.567339 0.000000 -0.000000 0.000000 3.174987 8.092060 11.838856 0.904411 -1.990374 13.340119 -2.514193 2.519326 1.317403 1.294451 13.339544 11.956704 1.446900 10.056280 15.371395 -24.847163 6.718882 2.268235 -50.784770 8.542985 -4.087847 5.999992 -26.812278 4.733336 -3.083840 -4.275593 -11.939304 23.386769 1.347884 3.779949 48.311963 2.934457 3.221274 -14.555720 43.889902 -5.966368 13.275197 1.068786 -3.005573 
